<svg xmlns="http://www.w3.org/2000/svg" xmlns:xlink="http://www.w3.org/1999/xlink" id="processonSvg1000" viewBox="328.0 24.75 785.0 858.25" width="785.0" height="858.25"><defs id="ProcessOnDefs1001"><marker id="ProcessOnMarker1055" markerUnits="userSpaceOnUse" orient="auto" markerWidth="16.23606797749979" markerHeight="10.550836550532098" viewBox="-1.0 -1.3763819204711736 16.23606797749979 10.550836550532098" refX="-1.0" refY="3.8990363547948754"><path id="ProcessOnPath1056" d="M12.0 3.8990363547948754L0.0 7.798072709589751V0.0Z" stroke="#323232" stroke-width="2.0" fill="#323232" transform="matrix(1.0,0.0,0.0,1.0,0.0,0.0)"/></marker><marker id="ProcessOnMarker1062" markerUnits="userSpaceOnUse" orient="auto" markerWidth="16.23606797749979" markerHeight="10.550836550532098" viewBox="-1.0 -1.3763819204711736 16.23606797749979 10.550836550532098" refX="-1.0" refY="3.8990363547948754"><path id="ProcessOnPath1063" d="M12.0 3.8990363547948754L0.0 7.798072709589751V0.0Z" stroke="#323232" stroke-width="2.0" fill="#323232" transform="matrix(1.0,0.0,0.0,1.0,0.0,0.0)"/></marker><marker id="ProcessOnMarker1081" markerUnits="userSpaceOnUse" orient="auto" markerWidth="16.23606797749979" markerHeight="10.550836550532098" viewBox="-1.0 -1.3763819204711736 16.23606797749979 10.550836550532098" refX="-1.0" refY="3.8990363547948754"><path id="ProcessOnPath1082" d="M12.0 3.8990363547948754L0.0 7.798072709589751V0.0Z" stroke="#323232" stroke-width="2.0" fill="#323232" transform="matrix(1.0,0.0,0.0,1.0,0.0,0.0)"/></marker><marker id="ProcessOnMarker1085" markerUnits="userSpaceOnUse" orient="auto" markerWidth="16.23606797749979" markerHeight="10.550836550532098" viewBox="-1.0 -1.3763819204711736 16.23606797749979 10.550836550532098" refX="-1.0" refY="3.8990363547948754"><path id="ProcessOnPath1086" d="M12.0 3.8990363547948754L0.0 7.798072709589751V0.0Z" stroke="#323232" stroke-width="2.0" fill="#323232" transform="matrix(1.0,0.0,0.0,1.0,0.0,0.0)"/></marker><marker id="ProcessOnMarker1092" markerUnits="userSpaceOnUse" orient="auto" markerWidth="16.23606797749979" markerHeight="10.550836550532098" viewBox="-1.0 -1.3763819204711736 16.23606797749979 10.550836550532098" refX="-1.0" refY="3.8990363547948754"><path id="ProcessOnPath1093" d="M12.0 3.8990363547948754L0.0 7.798072709589751V0.0Z" stroke="#323232" stroke-width="2.0" fill="#323232" transform="matrix(1.0,0.0,0.0,1.0,0.0,0.0)"/></marker><marker id="ProcessOnMarker1099" markerUnits="userSpaceOnUse" orient="auto" markerWidth="16.23606797749979" markerHeight="10.550836550532098" viewBox="-1.0 -1.3763819204711736 16.23606797749979 10.550836550532098" refX="-1.0" refY="3.8990363547948754"><path id="ProcessOnPath1100" d="M12.0 3.8990363547948754L0.0 7.798072709589751V0.0Z" stroke="#323232" stroke-width="2.0" fill="#323232" transform="matrix(1.0,0.0,0.0,1.0,0.0,0.0)"/></marker><marker id="ProcessOnMarker1107" markerUnits="userSpaceOnUse" orient="auto" markerWidth="16.23606797749979" markerHeight="10.550836550532098" viewBox="-1.0 -1.3763819204711736 16.23606797749979 10.550836550532098" refX="-1.0" refY="3.8990363547948754"><path id="ProcessOnPath1108" d="M12.0 3.8990363547948754L0.0 7.798072709589751V0.0Z" stroke="#323232" stroke-width="2.0" fill="#323232" transform="matrix(1.0,0.0,0.0,1.0,0.0,0.0)"/></marker><marker id="ProcessOnMarker1111" markerUnits="userSpaceOnUse" orient="auto" markerWidth="16.23606797749979" markerHeight="10.550836550532098" viewBox="-1.0 -1.3763819204711736 16.23606797749979 10.550836550532098" refX="-1.0" refY="3.8990363547948754"><path id="ProcessOnPath1112" d="M12.0 3.8990363547948754L0.0 7.798072709589751V0.0Z" stroke="#323232" stroke-width="2.0" fill="#323232" transform="matrix(1.0,0.0,0.0,1.0,0.0,0.0)"/></marker><marker id="ProcessOnMarker1115" markerUnits="userSpaceOnUse" orient="auto" markerWidth="16.23606797749979" markerHeight="10.550836550532098" viewBox="-1.0 -1.3763819204711736 16.23606797749979 10.550836550532098" refX="-1.0" refY="3.8990363547948754"><path id="ProcessOnPath1116" d="M12.0 3.8990363547948754L0.0 7.798072709589751V0.0Z" stroke="#323232" stroke-width="2.0" fill="#323232" transform="matrix(1.0,0.0,0.0,1.0,0.0,0.0)"/></marker><marker id="ProcessOnMarker1122" markerUnits="userSpaceOnUse" orient="auto" markerWidth="16.23606797749979" markerHeight="10.550836550532098" viewBox="-1.0 -1.3763819204711736 16.23606797749979 10.550836550532098" refX="-1.0" refY="3.8990363547948754"><path id="ProcessOnPath1123" d="M12.0 3.8990363547948754L0.0 7.798072709589751V0.0Z" stroke="#323232" stroke-width="2.0" fill="#323232" transform="matrix(1.0,0.0,0.0,1.0,0.0,0.0)"/></marker><marker id="ProcessOnMarker1129" markerUnits="userSpaceOnUse" orient="auto" markerWidth="16.23606797749979" markerHeight="10.550836550532098" viewBox="-1.0 -1.3763819204711736 16.23606797749979 10.550836550532098" refX="-1.0" refY="3.8990363547948754"><path id="ProcessOnPath1130" d="M12.0 3.8990363547948754L0.0 7.798072709589751V0.0Z" stroke="#323232" stroke-width="2.0" fill="#323232" transform="matrix(1.0,0.0,0.0,1.0,0.0,0.0)"/></marker></defs><g id="ProcessOnG1002"><path id="ProcessOnPath1003" d="M328.0 24.75H1113.0V883.0H328.0V24.75Z" fill="none"/><g id="ProcessOnG1004"><g id="ProcessOnG1005" transform="matrix(1.0,0.0,0.0,1.0,348.0,44.75)" opacity="1.0"><path id="ProcessOnPath1006" d="M0.0 0.0L745.0 0.0L745.0 818.25L0.0 818.25Z" stroke="#323232" stroke-width="2.0" stroke-dasharray="none" opacity="1.0" fill="none"/><path id="ProcessOnPath1007" d="M0.0 0.0L745.0 0.0L745.0 40.0L0.0 40.0Z" stroke="#323232" stroke-width="2.0" stroke-dasharray="none" opacity="1.0" fill="#ffffff"/><g id="ProcessOnG1008" transform="matrix(1.0,0.0,0.0,1.0,10.0,10.0)"><text id="ProcessOnText1009" fill="#000000" font-weight="normal" font-style="normal" text-decoration="blink" font-family="微软雅黑" text-anchor="middle" font-size="16" x="362.5" y="16.4">配置保存流程</text></g></g><g id="ProcessOnG1010" transform="matrix(1.0,0.0,0.0,1.0,348.0,84.75)" opacity="1.0"><path id="ProcessOnPath1011" d="M0.0 0.0L245.0 0.0L245.0 778.25L0.0 778.25Z" stroke="#323232" stroke-width="2.0" stroke-dasharray="none" opacity="1.0" fill="none"/><path id="ProcessOnPath1012" d="M0.0 0.0L245.0 0.0L245.0 30.0L0.0 30.0Z" stroke="#323232" stroke-width="2.0" stroke-dasharray="none" opacity="1.0" fill="#ffffff"/><g id="ProcessOnG1013" transform="matrix(1.0,0.0,0.0,1.0,10.0,6.875)"><text id="ProcessOnText1014" fill="#000000" font-weight="normal" font-style="normal" text-decoration="blink" font-family="微软雅黑" text-anchor="middle" font-size="13" x="112.5" y="13.325">store</text></g></g><g id="ProcessOnG1015" transform="matrix(1.0,0.0,0.0,1.0,593.0,84.75)" opacity="1.0"><path id="ProcessOnPath1016" d="M0.0 0.0L250.0 0.0L250.0 778.25L0.0 778.25Z" stroke="#323232" stroke-width="2.0" stroke-dasharray="none" opacity="1.0" fill="none"/><path id="ProcessOnPath1017" d="M0.0 0.0L250.0 0.0L250.0 30.0L0.0 30.0Z" stroke="#323232" stroke-width="2.0" stroke-dasharray="none" opacity="1.0" fill="#ffffff"/><g id="ProcessOnG1018" transform="matrix(1.0,0.0,0.0,1.0,10.0,6.875)"><text id="ProcessOnText1019" fill="#000000" font-weight="normal" font-style="normal" text-decoration="blink" font-family="微软雅黑" text-anchor="middle" font-size="13" x="115.0" y="13.325">server</text></g></g><g id="ProcessOnG1020" transform="matrix(1.0,0.0,0.0,1.0,843.0,84.75)" opacity="1.0"><path id="ProcessOnPath1021" d="M0.0 0.0L250.0 0.0L250.0 778.25L0.0 778.25Z" stroke="#323232" stroke-width="2.0" stroke-dasharray="none" opacity="1.0" fill="none"/><path id="ProcessOnPath1022" d="M0.0 0.0L250.0 0.0L250.0 30.0L0.0 30.0Z" stroke="#323232" stroke-width="2.0" stroke-dasharray="none" opacity="1.0" fill="#ffffff"/><g id="ProcessOnG1023" transform="matrix(1.0,0.0,0.0,1.0,10.0,6.875)"><text id="ProcessOnText1024" fill="#000000" font-weight="normal" font-style="normal" text-decoration="blink" font-family="微软雅黑" text-anchor="middle" font-size="13" x="115.0" y="13.325">workbench</text></g></g><g id="ProcessOnG1025" transform="matrix(1.0,0.0,0.0,1.0,910.5,190.08479817708326)" opacity="1.0"><path id="ProcessOnPath1026" d="M0.0 0.0L127.0 0.0L127.0 53.0L0.0 53.0Z" stroke="#323232" stroke-width="2.0" stroke-dasharray="none" opacity="1.0" fill="#0066cc"/><g id="ProcessOnG1027" transform="matrix(1.0,0.0,0.0,1.0,10.0,18.375)"><text id="ProcessOnText1028" fill="#ffffff" font-weight="normal" font-style="normal" text-decoration="blink" font-family="微软雅黑" text-anchor="middle" font-size="13" x="53.5" y="13.325">saving</text></g></g><g id="ProcessOnG1029" transform="matrix(1.0,0.0,0.0,1.0,410.5,142.08479817708326)" opacity="1.0"><path id="ProcessOnPath1030" d="M0.0 0.0L127.0 0.0L127.0 53.0L0.0 53.0Z" stroke="#323232" stroke-width="2.0" stroke-dasharray="none" opacity="1.0" fill="#1abc9c"/><g id="ProcessOnG1031" transform="matrix(1.0,0.0,0.0,1.0,10.0,18.375)"><text id="ProcessOnText1032" fill="#ffffff" font-weight="normal" font-style="normal" text-decoration="blink" font-family="微软雅黑" text-anchor="middle" font-size="13" x="53.5" y="13.325">保存配置表</text></g></g><g id="ProcessOnG1033" transform="matrix(1.0,0.0,0.0,1.0,910.5,357.1679871877034)" opacity="1.0"><path id="ProcessOnPath1034" d="M0.0 0.0L127.0 0.0L127.0 53.0L0.0 53.0Z" stroke="#323232" stroke-width="2.0" stroke-dasharray="none" opacity="1.0" fill="#0066cc"/><g id="ProcessOnG1035" transform="matrix(1.0,0.0,0.0,1.0,10.0,18.375)"><text id="ProcessOnText1036" fill="#ffffff" font-weight="normal" font-style="normal" text-decoration="blink" font-family="微软雅黑" text-anchor="middle" font-size="13" x="53.5" y="13.325">connectFailed</text></g></g><g id="ProcessOnG1037" transform="matrix(1.0,0.0,0.0,1.0,409.5,535.375)" opacity="1.0"><path id="ProcessOnPath1038" d="M0.0 49.5L64.0 0.0L128.0 49.5L64.0 99.0L0.0 49.5Z" stroke="#323232" stroke-width="2.0" stroke-dasharray="none" opacity="1.0" fill="#f2bb15"/><g id="ProcessOnG1039" transform="matrix(1.0,0.0,0.0,1.0,10.0,41.375)"><text id="ProcessOnText1040" fill="#ffffff" font-weight="normal" font-style="normal" text-decoration="blink" font-family="微软雅黑" text-anchor="middle" font-size="13" x="54.0" y="13.325">是否保存成功？</text></g></g><g id="ProcessOnG1041" transform="matrix(1.0,0.0,0.0,1.0,910.5,653.4179871877031)" opacity="1.0"><path id="ProcessOnPath1042" d="M0.0 0.0L127.0 0.0L127.0 53.0L0.0 53.0Z" stroke="#323232" stroke-width="2.0" stroke-dasharray="none" opacity="1.0" fill="#0066cc"/><g id="ProcessOnG1043" transform="matrix(1.0,0.0,0.0,1.0,10.0,18.375)"><text id="ProcessOnText1044" fill="#ffffff" font-weight="normal" font-style="normal" text-decoration="blink" font-family="微软雅黑" text-anchor="middle" font-size="13" x="53.5" y="13.325">saveSuccess</text></g></g><g id="ProcessOnG1045" transform="matrix(1.0,0.0,0.0,1.0,910.5,746.3910676936307)" opacity="1.0"><path id="ProcessOnPath1046" d="M0.0 0.0L127.0 0.0L127.0 53.0L0.0 53.0Z" stroke="#323232" stroke-width="2.0" stroke-dasharray="none" opacity="1.0" fill="#0066cc"/><g id="ProcessOnG1047" transform="matrix(1.0,0.0,0.0,1.0,10.0,18.375)"><text id="ProcessOnText1048" fill="#ffffff" font-weight="normal" font-style="normal" text-decoration="blink" font-family="微软雅黑" text-anchor="middle" font-size="13" x="53.5" y="13.325">saveFailed</text></g></g><g id="ProcessOnG1049" transform="matrix(1.0,0.0,0.0,1.0,410.0,774.0847981770833)" opacity="1.0"><path id="ProcessOnPath1050" d="M0.0 0.0L127.0 0.0L127.0 53.0L0.0 53.0Z" stroke="#323232" stroke-width="2.0" stroke-dasharray="none" opacity="1.0" fill="#1abc9c"/><g id="ProcessOnG1051" transform="matrix(1.0,0.0,0.0,1.0,10.0,18.375)"><text id="ProcessOnText1052" fill="#ffffff" font-weight="normal" font-style="normal" text-decoration="blink" font-family="微软雅黑" text-anchor="middle" font-size="13" x="53.5" y="13.325">更新配置表</text></g></g><g id="ProcessOnG1053"><path id="ProcessOnPath1054" d="M473.5 634.375L473.5 704.2298990885416L473.5 704.2298990885416L473.5 758.8487301995834" stroke="#323232" stroke-width="2.0" stroke-dasharray="none" fill="none" marker-end="url(#ProcessOnMarker1055)"/><g id="ProcessOnG1057" transform="matrix(1.0,0.0,0.0,1.0,473.5,688.4868650997917)"><path id="ProcessOnPath1058" d="M0 0H26.0V16.25H0Z" fill="#fff" transform="matrix(1.0,0.0,0.0,1.0,-13.0,0.0)"/><text id="ProcessOnText1059" fill="#000000" font-weight="normal" font-style="normal" text-decoration="blink" font-family="微软雅黑" text-anchor="middle" font-size="13" x="0.0" y="13.325">成功</text></g></g><g id="ProcessOnG1060"><path id="ProcessOnPath1061" d="M474.0 195.08479817708326L474.0 216.58479817708326L895.2639320225002 216.58479817708326" stroke="#323232" stroke-width="2.0" stroke-dasharray="10.0 4.0" fill="none" marker-end="url(#ProcessOnMarker1062)"/><g id="ProcessOnG1064" transform="matrix(1.0,0.0,0.0,1.0,673.8819660112501,208.45979817708326)"><path id="ProcessOnPath1065" d="M0 0H27.0V16.25H0Z" fill="#fff" transform="matrix(1.0,0.0,0.0,1.0,-13.5,0.0)"/><text id="ProcessOnText1066" fill="#000000" font-weight="normal" font-style="normal" text-decoration="blink" font-family="微软雅黑" text-anchor="middle" font-size="13" x="0.0" y="13.325">emit</text></g></g><g id="ProcessOnG1067" transform="matrix(1.0,0.0,0.0,1.0,657.5,505.3910676936307)" opacity="1.0"><path id="ProcessOnPath1068" d="M0.0 0.0L127.0 0.0L127.0 53.0L0.0 53.0Z" stroke="#323232" stroke-width="2.0" stroke-dasharray="none" opacity="1.0" fill="#1abc9c"/><g id="ProcessOnG1069" transform="matrix(1.0,0.0,0.0,1.0,10.0,18.375)"><text id="ProcessOnText1070" fill="#ffffff" font-weight="normal" font-style="normal" text-decoration="blink" font-family="微软雅黑" text-anchor="middle" font-size="13" x="53.5" y="13.325">写入数据库</text></g></g><g id="ProcessOnG1071" transform="matrix(1.0,0.0,0.0,1.0,657.0,249.08479817708326)" opacity="1.0"><path id="ProcessOnPath1072" d="M0.0 49.5L64.0 0.0L128.0 49.5L64.0 99.0L0.0 49.5Z" stroke="#323232" stroke-width="2.0" stroke-dasharray="none" opacity="1.0" fill="#f2bb15"/><g id="ProcessOnG1073" transform="matrix(1.0,0.0,0.0,1.0,10.0,41.375)"><text id="ProcessOnText1074" fill="#ffffff" font-weight="normal" font-style="normal" text-decoration="blink" font-family="微软雅黑" text-anchor="middle" font-size="13" x="54.0" y="13.325">是否符合要求</text></g></g><g id="ProcessOnG1075" transform="matrix(1.0,0.0,0.0,1.0,657.5,593.0847981770833)" opacity="1.0"><path id="ProcessOnPath1076" d="M0.0 0.0L127.0 0.0L127.0 53.0L0.0 53.0Z" stroke="#323232" stroke-width="2.0" stroke-dasharray="none" opacity="1.0" fill="#1abc9c"/><g id="ProcessOnG1077" transform="matrix(1.0,0.0,0.0,1.0,10.0,18.375)"><text id="ProcessOnText1078" fill="#ffffff" font-weight="normal" font-style="normal" text-decoration="blink" font-family="微软雅黑" text-anchor="middle" font-size="13" x="53.5" y="13.325">通过SSE推动消息</text></g></g><g id="ProcessOnG1079"><path id="ProcessOnPath1080" d="M721.0 558.3910676936307L721.0 575.737932935357L721.0 575.737932935357L721.0 577.8487301995834" stroke="#323232" stroke-width="2.0" stroke-dasharray="none" fill="none" marker-end="url(#ProcessOnMarker1081)"/></g><g id="ProcessOnG1083"><path id="ProcessOnPath1084" d="M785.0 298.58479817708326L815.0 298.58479817708326L815.0 475.3910676936307L721.0 475.3910676936307L721.0 490.15499971613093" stroke="#323232" stroke-width="2.0" stroke-dasharray="none" fill="none" marker-end="url(#ProcessOnMarker1085)"/><g id="ProcessOnG1087" transform="matrix(1.0,0.0,0.0,1.0,815.0,418.2448989466071)"><path id="ProcessOnPath1088" d="M0 0H26.0V16.25H0Z" fill="#fff" transform="matrix(1.0,0.0,0.0,1.0,-13.0,0.0)"/><text id="ProcessOnText1089" fill="#000000" font-weight="normal" font-style="normal" text-decoration="blink" font-family="微软雅黑" text-anchor="middle" font-size="13" x="0.0" y="13.325">符合</text></g></g><g id="ProcessOnG1090"><path id="ProcessOnPath1091" d="M721.0 348.08479817708326L721.0 441.72989908854163L473.5 441.72989908854163L473.5 520.1389320225002" stroke="#323232" stroke-width="2.0" stroke-dasharray="none" fill="none" marker-end="url(#ProcessOnMarker1092)"/><g id="ProcessOnG1094" transform="matrix(1.0,0.0,0.0,1.0,604.8680339887499,433.60489908854163)"><path id="ProcessOnPath1095" d="M0 0H39.0V16.25H0Z" fill="#fff" transform="matrix(1.0,0.0,0.0,1.0,-19.5,0.0)"/><text id="ProcessOnText1096" fill="#000000" font-weight="normal" font-style="normal" text-decoration="blink" font-family="微软雅黑" text-anchor="middle" font-size="13" x="0.0" y="13.325">不符合</text></g></g><g id="ProcessOnG1097"><path id="ProcessOnPath1098" d="M657.5 619.5847981770833L627.5 619.5847981770833L627.5 484.375L473.5 484.375L473.5 520.1389320225002" stroke="#323232" stroke-width="2.0" stroke-dasharray="none" fill="none" marker-end="url(#ProcessOnMarker1099)"/></g><g id="ProcessOnG1101" transform="matrix(1.0,0.0,0.0,1.0,409.5,249.08479817708326)" opacity="1.0"><path id="ProcessOnPath1102" d="M0.0 49.5L64.0 0.0L128.0 49.5L64.0 99.0L0.0 49.5Z" stroke="#323232" stroke-width="2.0" stroke-dasharray="none" opacity="1.0" fill="#f2bb15"/><g id="ProcessOnG1103" transform="matrix(1.0,0.0,0.0,1.0,10.0,41.375)"><text id="ProcessOnText1104" fill="#ffffff" font-weight="normal" font-style="normal" text-decoration="blink" font-family="微软雅黑" text-anchor="middle" font-size="13" x="54.0" y="13.325">发送保存请求</text></g></g><g id="ProcessOnG1105"><path id="ProcessOnPath1106" d="M474.0 195.08479817708326L474.0 222.08479817708326L473.5 222.08479817708326L473.5 233.84873019958346" stroke="#323232" stroke-width="2.0" stroke-dasharray="none" fill="none" marker-end="url(#ProcessOnMarker1107)"/></g><g id="ProcessOnG1109"><path id="ProcessOnPath1110" d="M537.5 298.58479817708326L597.25 298.58479817708326L597.25 298.58479817708326L641.7639320225002 298.58479817708326" stroke="#323232" stroke-width="2.0" stroke-dasharray="none" fill="none" marker-end="url(#ProcessOnMarker1111)"/></g><g id="ProcessOnG1113"><path id="ProcessOnPath1114" d="M473.5 348.08479817708326L473.5 383.6679871877034L895.2639320225002 383.6679871877034" stroke="#323232" stroke-width="2.0" stroke-dasharray="10.0 4.0" fill="none" marker-end="url(#ProcessOnMarker1115)"/><g id="ProcessOnG1117" transform="matrix(1.0,0.0,0.0,1.0,666.5903715059401,375.5429871877034)"><path id="ProcessOnPath1118" d="M0 0H52.0V16.25H0Z" fill="#fff" transform="matrix(1.0,0.0,0.0,1.0,-26.0,0.0)"/><text id="ProcessOnText1119" fill="#000000" font-weight="normal" font-style="normal" text-decoration="blink" font-family="微软雅黑" text-anchor="middle" font-size="13" x="0.0" y="13.325">请求失败</text></g></g><g id="ProcessOnG1120"><path id="ProcessOnPath1121" d="M473.5 634.375L473.5 679.9179871877031L895.2639320225002 679.9179871877031" stroke="#323232" stroke-width="2.0" stroke-dasharray="10.0 4.0" fill="none" marker-end="url(#ProcessOnMarker1122)"/><g id="ProcessOnG1124" transform="matrix(1.0,0.0,0.0,1.0,661.6104724173986,671.7929871877031)"><path id="ProcessOnPath1125" d="M0 0H26.0V16.25H0Z" fill="#fff" transform="matrix(1.0,0.0,0.0,1.0,-13.0,0.0)"/><text id="ProcessOnText1126" fill="#000000" font-weight="normal" font-style="normal" text-decoration="blink" font-family="微软雅黑" text-anchor="middle" font-size="13" x="0.0" y="13.325">成功</text></g></g><g id="ProcessOnG1127"><path id="ProcessOnPath1128" d="M537.5 584.875L568.0 584.875L568.0 772.8910676936307L895.2639320225002 772.8910676936307" stroke="#323232" stroke-width="2.0" stroke-dasharray="10.0 4.0" fill="none" marker-end="url(#ProcessOnMarker1129)"/><g id="ProcessOnG1131" transform="matrix(1.0,0.0,0.0,1.0,622.3739321644348,764.7660676936307)"><path id="ProcessOnPath1132" d="M0 0H26.0V16.25H0Z" fill="#fff" transform="matrix(1.0,0.0,0.0,1.0,-13.0,0.0)"/><text id="ProcessOnText1133" fill="#000000" font-weight="normal" font-style="normal" text-decoration="blink" font-family="微软雅黑" text-anchor="middle" font-size="13" x="0.0" y="13.325">失败</text></g></g></g></g></svg>