<svg xmlns="http://www.w3.org/2000/svg" xmlns:xlink="http://www.w3.org/1999/xlink" id="processonSvg1000" viewBox="224.0 65.99999999999994 1158.3569405099179 1747.8611111111115" width="1158.3569405099179" height="1747.8611111111115"><defs id="ProcessOnDefs1001"><marker id="ProcessOnMarker1007" markerUnits="userSpaceOnUse" orient="auto" markerWidth="16.23606797749979" markerHeight="10.550836550532098" viewBox="-1.0 -1.3763819204711736 16.23606797749979 10.550836550532098" refX="-1.0" refY="3.8990363547948754"><path id="ProcessOnPath1008" d="M12.0 3.8990363547948754L0.0 7.798072709589751V0.0Z" stroke="#323232" stroke-width="2.0" fill="#323232" transform="matrix(1.0,0.0,0.0,1.0,0.0,0.0)"/></marker><marker id="ProcessOnMarker1011" markerUnits="userSpaceOnUse" orient="auto" markerWidth="16.23606797749979" markerHeight="10.550836550532098" viewBox="-1.0 -1.3763819204711736 16.23606797749979 10.550836550532098" refX="-1.0" refY="3.8990363547948754"><path id="ProcessOnPath1012" d="M12.0 3.8990363547948754L0.0 7.798072709589751V0.0Z" stroke="#323232" stroke-width="2.0" fill="#323232" transform="matrix(1.0,0.0,0.0,1.0,0.0,0.0)"/></marker><marker id="ProcessOnMarker1015" markerUnits="userSpaceOnUse" orient="auto" markerWidth="16.23606797749979" markerHeight="10.550836550532098" viewBox="-1.0 -1.3763819204711736 16.23606797749979 10.550836550532098" refX="-1.0" refY="3.8990363547948754"><path id="ProcessOnPath1016" d="M12.0 3.8990363547948754L0.0 7.798072709589751V0.0Z" stroke="#323232" stroke-width="2.0" fill="#323232" transform="matrix(1.0,0.0,0.0,1.0,0.0,0.0)"/></marker><marker id="ProcessOnMarker1019" markerUnits="userSpaceOnUse" orient="auto" markerWidth="16.23606797749979" markerHeight="10.550836550532098" viewBox="-1.0 -1.3763819204711736 16.23606797749979 10.550836550532098" refX="-1.0" refY="3.8990363547948754"><path id="ProcessOnPath1020" d="M12.0 3.8990363547948754L0.0 7.798072709589751V0.0Z" stroke="#323232" stroke-width="2.0" fill="#323232" transform="matrix(1.0,0.0,0.0,1.0,0.0,0.0)"/></marker><marker id="ProcessOnMarker1037" markerUnits="userSpaceOnUse" orient="auto" markerWidth="16.23606797749979" markerHeight="10.550836550532098" viewBox="-1.0 -1.3763819204711736 16.23606797749979 10.550836550532098" refX="-1.0" refY="3.8990363547948754"><path id="ProcessOnPath1038" d="M12.0 3.8990363547948754L0.0 7.798072709589751V0.0Z" stroke="#323232" stroke-width="2.0" fill="#323232" transform="matrix(1.0,0.0,0.0,1.0,0.0,0.0)"/></marker><marker id="ProcessOnMarker1041" markerUnits="userSpaceOnUse" orient="auto" markerWidth="16.23606797749979" markerHeight="10.550836550532098" viewBox="-1.0 -1.3763819204711736 16.23606797749979 10.550836550532098" refX="-1.0" refY="3.8990363547948754"><path id="ProcessOnPath1042" d="M12.0 3.8990363547948754L0.0 7.798072709589751V0.0Z" stroke="#323232" stroke-width="2.0" fill="#323232" transform="matrix(1.0,0.0,0.0,1.0,0.0,0.0)"/></marker><marker id="ProcessOnMarker1049" markerUnits="userSpaceOnUse" orient="auto" markerWidth="16.23606797749979" markerHeight="10.550836550532098" viewBox="-1.0 -1.3763819204711736 16.23606797749979 10.550836550532098" refX="-1.0" refY="3.8990363547948754"><path id="ProcessOnPath1050" d="M12.0 3.8990363547948754L0.0 7.798072709589751V0.0Z" stroke="#323232" stroke-width="2.0" fill="#323232" transform="matrix(1.0,0.0,0.0,1.0,0.0,0.0)"/></marker><marker id="ProcessOnMarker1061" markerUnits="userSpaceOnUse" orient="auto" markerWidth="16.23606797749979" markerHeight="10.550836550532098" viewBox="-1.0 -1.3763819204711736 16.23606797749979 10.550836550532098" refX="-1.0" refY="3.8990363547948754"><path id="ProcessOnPath1062" d="M12.0 3.8990363547948754L0.0 7.798072709589751V0.0Z" stroke="#323232" stroke-width="2.0" fill="#323232" transform="matrix(1.0,0.0,0.0,1.0,0.0,0.0)"/></marker><marker id="ProcessOnMarker1068" markerUnits="userSpaceOnUse" orient="auto" markerWidth="16.23606797749979" markerHeight="10.550836550532098" viewBox="-1.0 -1.3763819204711736 16.23606797749979 10.550836550532098" refX="-1.0" refY="3.8990363547948754"><path id="ProcessOnPath1069" d="M12.0 3.8990363547948754L0.0 7.798072709589751V0.0Z" stroke="#323232" stroke-width="2.0" fill="#323232" transform="matrix(1.0,0.0,0.0,1.0,0.0,0.0)"/></marker><marker id="ProcessOnMarker1079" markerUnits="userSpaceOnUse" orient="auto" markerWidth="16.23606797749979" markerHeight="10.550836550532098" viewBox="-1.0 -1.3763819204711736 16.23606797749979 10.550836550532098" refX="-1.0" refY="3.8990363547948754"><path id="ProcessOnPath1080" d="M12.0 3.8990363547948754L0.0 7.798072709589751V0.0Z" stroke="#323232" stroke-width="2.0" fill="#323232" transform="matrix(1.0,0.0,0.0,1.0,0.0,0.0)"/></marker><marker id="ProcessOnMarker1088" markerUnits="userSpaceOnUse" orient="auto" markerWidth="16.23606797749979" markerHeight="10.550836550532098" viewBox="-1.0 -1.3763819204711736 16.23606797749979 10.550836550532098" refX="-1.0" refY="3.8990363547948754"><path id="ProcessOnPath1089" d="M12.0 3.8990363547948754L0.0 7.798072709589751V0.0Z" stroke="#323232" stroke-width="2.0" fill="#323232" transform="matrix(1.0,0.0,0.0,1.0,0.0,0.0)"/></marker><marker id="ProcessOnMarker1100" markerUnits="userSpaceOnUse" orient="auto" markerWidth="16.23606797749979" markerHeight="10.550836550532098" viewBox="-1.0 -1.3763819204711736 16.23606797749979 10.550836550532098" refX="-1.0" refY="3.8990363547948754"><path id="ProcessOnPath1101" d="M12.0 3.8990363547948754L0.0 7.798072709589751V0.0Z" stroke="#323232" stroke-width="2.0" fill="#323232" transform="matrix(1.0,0.0,0.0,1.0,0.0,0.0)"/></marker><marker id="ProcessOnMarker1109" markerUnits="userSpaceOnUse" orient="auto" markerWidth="16.23606797749979" markerHeight="10.550836550532098" viewBox="-1.0 -1.3763819204711736 16.23606797749979 10.550836550532098" refX="-1.0" refY="3.8990363547948754"><path id="ProcessOnPath1110" d="M12.0 3.8990363547948754L0.0 7.798072709589751V0.0Z" stroke="#323232" stroke-width="2.0" fill="#323232" transform="matrix(1.0,0.0,0.0,1.0,0.0,0.0)"/></marker><marker id="ProcessOnMarker1117" markerUnits="userSpaceOnUse" orient="auto" markerWidth="16.23606797749979" markerHeight="10.550836550532098" viewBox="-1.0 -1.3763819204711736 16.23606797749979 10.550836550532098" refX="-1.0" refY="3.8990363547948754"><path id="ProcessOnPath1118" d="M12.0 3.8990363547948754L0.0 7.798072709589751V0.0Z" stroke="#323232" stroke-width="2.0" fill="#323232" transform="matrix(1.0,0.0,0.0,1.0,0.0,0.0)"/></marker><marker id="ProcessOnMarker1141" markerUnits="userSpaceOnUse" orient="auto" markerWidth="16.23606797749979" markerHeight="10.550836550532098" viewBox="-1.0 -1.3763819204711736 16.23606797749979 10.550836550532098" refX="-1.0" refY="3.8990363547948754"><path id="ProcessOnPath1142" d="M12.0 3.8990363547948754L0.0 7.798072709589751V0.0Z" stroke="#323232" stroke-width="2.0" fill="#323232" transform="matrix(1.0,0.0,0.0,1.0,0.0,0.0)"/></marker><marker id="ProcessOnMarker1149" markerUnits="userSpaceOnUse" orient="auto" markerWidth="16.23606797749979" markerHeight="10.550836550532098" viewBox="-1.0 -1.3763819204711736 16.23606797749979 10.550836550532098" refX="-1.0" refY="3.8990363547948754"><path id="ProcessOnPath1150" d="M12.0 3.8990363547948754L0.0 7.798072709589751V0.0Z" stroke="#323232" stroke-width="2.0" fill="#323232" transform="matrix(1.0,0.0,0.0,1.0,0.0,0.0)"/></marker></defs><g id="ProcessOnG1002"><path id="ProcessOnPath1003" d="M224.0 65.99999999999994H1382.3569405099179V1813.8611111111115H224.0V66.0Z" fill="none"/><g id="ProcessOnG1004"><g id="ProcessOnG1005"><path id="ProcessOnPath1006" d="M794.1784702549576 1317.3833507566706L794.1784702549576 1374.6666666666667L463.56940131083314 1374.6666666666667" stroke="#323232" stroke-width="2.0" stroke-dasharray="10.0 4.0" fill="none" marker-end="url(#ProcessOnMarker1007)"/></g><g id="ProcessOnG1009"><path id="ProcessOnPath1010" d="M794.1784702549576 1121.3925228992434L794.1784702549576 1176.6666666666667L463.56940131083314 1176.6666666666667" stroke="#323232" stroke-width="2.0" stroke-dasharray="10.0 4.0" fill="none" marker-end="url(#ProcessOnMarker1011)"/></g><g id="ProcessOnG1013"><path id="ProcessOnPath1014" d="M793.0 925.401695041816L793.0 970.6666666666666L463.56940131083314 970.6666666666666" stroke="#323232" stroke-width="2.0" stroke-dasharray="10.0 4.0" fill="none" marker-end="url(#ProcessOnMarker1015)"/></g><g id="ProcessOnG1017"><path id="ProcessOnPath1018" d="M793.0 645.2285195141376L793.0 690.6666666666666L463.56940131083314 690.6666666666666" stroke="#323232" stroke-width="2.0" stroke-dasharray="10.0 4.0" fill="none" marker-end="url(#ProcessOnMarker1019)"/></g><g id="ProcessOnG1021" transform="matrix(1.0,0.0,0.0,1.0,664.0,85.99999999999994)" opacity="1.0"><path id="ProcessOnPath1022" d="M27.688172043010752 0.0L230.66876846690428 0.0C267.5863311909186 0.0 267.5863311909186 83.06451612903226 230.66876846690428 83.06451612903226L27.688172043010752 83.06451612903226C-9.229390681003585 83.06451612903226 -9.229390681003585 0.0 27.688172043010752 0.0Z" stroke="#323232" stroke-width="2.0" stroke-dasharray="none" opacity="1.0" fill="#171717"/><g id="ProcessOnG1023" transform="matrix(1.0,0.0,0.0,1.0,10.0,29.032258064516128)"><text id="ProcessOnText1024" fill="#ffffff" font-weight="normal" font-style="normal" text-decoration="blink" font-family="微软雅黑" text-anchor="middle" font-size="20" x="119.17847025495752" y="20.5">new Workbench()</text></g></g><g id="ProcessOnG1025" transform="matrix(1.0,0.0,0.0,1.0,664.0,262.5710249900437)" opacity="1.0"><path id="ProcessOnPath1026" d="M0.0 4.0Q0.0 0.0 4.0 0.0L254.35694050991515 0.0Q258.35694050991515 0.0 258.35694050991515 4.0L258.35694050991515 98.48431899641571Q258.35694050991515 102.48431899641571 254.35694050991515 102.48431899641571L4.0 102.48431899641571Q0.0 102.48431899641571 0.0 98.48431899641571Z" stroke="#323232" stroke-width="2.0" stroke-dasharray="none" opacity="1.0" fill="#1abc9c"/><g id="ProcessOnG1027" transform="matrix(1.0,0.0,0.0,1.0,10.0,26.242159498207855)"><text id="ProcessOnText1028" fill="#ffffff" font-weight="normal" font-style="normal" text-decoration="blink" font-family="微软雅黑" text-anchor="middle" font-size="20" x="119.17847025495757" y="20.5">initStore</text><text id="ProcessOnText1029" fill="#ffffff" font-weight="normal" font-style="normal" text-decoration="blink" font-family="微软雅黑" text-anchor="middle" font-size="20" x="119.17847025495757" y="45.5">初始化状态管理器</text></g></g><g id="ProcessOnG1030" transform="matrix(1.0,0.0,0.0,1.0,653.0,458.56185284747096)" opacity="1.0"><path id="ProcessOnPath1031" d="M0.0 93.33333333333337L140.00000000000006 0.0L280.0000000000001 93.33333333333337L140.00000000000006 186.66666666666674L0.0 93.33333333333337Z" stroke="#323232" stroke-width="2.0" stroke-dasharray="none" opacity="1.0" fill="#f2bb15"/><g id="ProcessOnG1032" transform="matrix(1.0,0.0,0.0,1.0,10.0,68.33333333333337)"><text id="ProcessOnText1033" fill="#ffffff" font-weight="normal" font-style="normal" text-decoration="blink" font-family="微软雅黑" text-anchor="middle" font-size="20" x="130.00000000000006" y="20.5">getConfig</text><text id="ProcessOnText1034" fill="#ffffff" font-weight="normal" font-style="normal" text-decoration="blink" font-family="微软雅黑" text-anchor="middle" font-size="20" x="130.00000000000006" y="45.5">获取配置表</text></g></g><g id="ProcessOnG1035"><path id="ProcessOnPath1036" d="M793.1784702549576 169.06451612903228L793.1784702549576 215.81777055953802L793.1784702549576 215.81777055953802L793.1784702549576 247.33495701254392" stroke="#323232" stroke-width="2.0" stroke-dasharray="none" fill="none" marker-end="url(#ProcessOnMarker1037)"/></g><g id="ProcessOnG1039"><path id="ProcessOnPath1040" d="M793.1784702549576 365.05534398645943L793.1784702549576 411.8085984169652L792.9999999999999 411.8085984169652L792.9999999999999 443.3257848699712" stroke="#323232" stroke-width="2.0" stroke-dasharray="none" fill="none" marker-end="url(#ProcessOnMarker1041)"/></g><g id="ProcessOnG1043" transform="matrix(1.0,0.0,0.0,1.0,1104.0000000000027,1710.7965949820793)" opacity="1.0"><path id="ProcessOnPath1044" d="M27.688172043010752 0.0L230.66876846690428 0.0C267.5863311909186 0.0 267.5863311909186 83.06451612903226 230.66876846690428 83.06451612903226L27.688172043010752 83.06451612903226C-9.229390681003585 83.06451612903226 -9.229390681003585 0.0 27.688172043010752 0.0Z" stroke="#323232" stroke-width="2.0" stroke-dasharray="none" opacity="1.0" fill="#990000"/><g id="ProcessOnG1045" transform="matrix(1.0,0.0,0.0,1.0,10.0,29.032258064516128)"><text id="ProcessOnText1046" fill="#ffffff" font-weight="normal" font-style="normal" text-decoration="blink" font-family="微软雅黑" text-anchor="middle" font-size="20" x="119.17847025495752" y="20.5">Failed</text></g></g><g id="ProcessOnG1047"><path id="ProcessOnPath1048" d="M933.0 551.8951861808048L1233.1784702549596 551.8951861808048L1233.1784702549596 1695.5605270045796" stroke="#323232" stroke-width="2.0" stroke-dasharray="none" fill="none" marker-end="url(#ProcessOnMarker1049)"/><g id="ProcessOnG1051" transform="matrix(1.0,0.0,0.0,1.0,1233.1784702549596,961.1386214652124)"><path id="ProcessOnPath1052" d="M0 0H52.0V25.0H0Z" fill="#fff" transform="matrix(1.0,0.0,0.0,1.0,-26.0,0.0)"/><text id="ProcessOnText1053" fill="#990000" font-weight="normal" font-style="normal" text-decoration="blink" font-family="微软雅黑" text-anchor="middle" font-size="20" x="0.0" y="20.5">failed</text></g></g><g id="ProcessOnG1054" transform="matrix(1.0,0.0,0.0,1.0,653.0,738.7350283751492)" opacity="1.0"><path id="ProcessOnPath1055" d="M0.0 93.33333333333337L140.00000000000006 0.0L280.0000000000001 93.33333333333337L140.00000000000006 186.66666666666674L0.0 93.33333333333337Z" stroke="#323232" stroke-width="2.0" stroke-dasharray="none" opacity="1.0" fill="#f2bb15"/><g id="ProcessOnG1056" transform="matrix(1.0,0.0,0.0,1.0,10.0,68.33333333333337)"><text id="ProcessOnText1057" fill="#ffffff" font-weight="normal" font-style="normal" text-decoration="blink" font-family="微软雅黑" text-anchor="middle" font-size="20" x="130.00000000000006" y="20.5">validatorConfig</text><text id="ProcessOnText1058" fill="#ffffff" font-weight="normal" font-style="normal" text-decoration="blink" font-family="微软雅黑" text-anchor="middle" font-size="20" x="130.00000000000006" y="45.5">校验配置表</text></g></g><g id="ProcessOnG1059"><path id="ProcessOnPath1060" d="M793.0000000000001 645.228519514138L793.0000000000001 691.9817739446437L792.9999999999999 691.9817739446437L792.9999999999999 723.4989603976494" stroke="#323232" stroke-width="2.0" stroke-dasharray="none" fill="none" marker-end="url(#ProcessOnMarker1061)"/><g id="ProcessOnG1063" transform="matrix(1.0,0.0,0.0,1.0,793.0000000000001,671.8637399558938)"><path id="ProcessOnPath1064" d="M0 0H70.0V25.0H0Z" fill="#fff" transform="matrix(1.0,0.0,0.0,1.0,-35.0,0.0)"/><text id="ProcessOnText1065" fill="#1abc9c" font-weight="normal" font-style="normal" text-decoration="blink" font-family="微软雅黑" text-anchor="middle" font-size="20" x="0.0" y="20.5">success</text></g></g><g id="ProcessOnG1066"><path id="ProcessOnPath1067" d="M932.9999999999995 832.0683617084826L1233.1784702549596 832.0683617084826L1233.1784702549596 1695.5605270045796" stroke="#323232" stroke-width="2.0" stroke-dasharray="none" fill="none" marker-end="url(#ProcessOnMarker1068)"/><g id="ProcessOnG1070" transform="matrix(1.0,0.0,0.0,1.0,1233.1784702549596,1101.225209229051)"><path id="ProcessOnPath1071" d="M0 0H52.0V25.0H0Z" fill="#fff" transform="matrix(1.0,0.0,0.0,1.0,-26.0,0.0)"/><text id="ProcessOnText1072" fill="#990000" font-weight="normal" font-style="normal" text-decoration="blink" font-family="微软雅黑" text-anchor="middle" font-size="20" x="0.0" y="20.5">failed</text></g></g><g id="ProcessOnG1073" transform="matrix(1.0,0.0,0.0,1.0,244.0,171.00000000000006)" opacity="1.0"><path id="ProcessOnPath1074" d="M0.0 4.0Q0.0 0.0 4.0 0.0L199.33333333333331 0.0Q203.33333333333331 0.0 203.33333333333331 4.0L203.33333333333331 79.33333333333334Q203.33333333333331 83.33333333333334 199.33333333333331 83.33333333333334L4.0 83.33333333333334Q0.0 83.33333333333334 0.0 79.33333333333334Z" stroke="#990000" stroke-width="2.0" stroke-dasharray="none" opacity="1.0" fill="none"/><g id="ProcessOnG1075" transform="matrix(1.0,0.0,0.0,1.0,10.0,29.16666666666667)"><text id="ProcessOnText1076" fill="#990000" font-weight="normal" font-style="normal" text-decoration="blink" font-family="微软雅黑" text-anchor="middle" font-size="20" x="91.66666666666666" y="20.5">Created</text></g></g><g id="ProcessOnG1077"><path id="ProcessOnPath1078" d="M793.1784702549575 169.0645161290322L793.1784702549575 212.66666666666674L462.5694013108335 212.66666666666674" stroke="#323232" stroke-width="2.0" stroke-dasharray="10.0 4.0" fill="none" marker-end="url(#ProcessOnMarker1079)"/></g><g id="ProcessOnG1081" transform="matrix(1.0,0.0,0.0,1.0,665.0,1018.9082039028276)" opacity="1.0"><path id="ProcessOnPath1082" d="M0.0 4.0Q0.0 0.0 4.0 0.0L254.35694050991515 0.0Q258.35694050991515 0.0 258.35694050991515 4.0L258.35694050991515 98.48431899641571Q258.35694050991515 102.48431899641571 254.35694050991515 102.48431899641571L4.0 102.48431899641571Q0.0 102.48431899641571 0.0 98.48431899641571Z" stroke="#323232" stroke-width="2.0" stroke-dasharray="none" opacity="1.0" fill="#1abc9c"/><g id="ProcessOnG1083" transform="matrix(1.0,0.0,0.0,1.0,10.0,26.242159498207855)"><text id="ProcessOnText1084" fill="#ffffff" font-weight="normal" font-style="normal" text-decoration="blink" font-family="微软雅黑" text-anchor="middle" font-size="20" x="119.17847025495757" y="20.5">initConfig</text><text id="ProcessOnText1085" fill="#ffffff" font-weight="normal" font-style="normal" text-decoration="blink" font-family="微软雅黑" text-anchor="middle" font-size="20" x="119.17847025495757" y="45.5">初始化配置表</text></g></g><g id="ProcessOnG1086"><path id="ProcessOnPath1087" d="M793.0 925.401695041816L793.0 972.1549494723217L794.1784702549576 972.1549494723217L794.1784702549576 1003.6721359253278" stroke="#323232" stroke-width="2.0" stroke-dasharray="none" fill="none" marker-end="url(#ProcessOnMarker1088)"/><g id="ProcessOnG1090" transform="matrix(1.0,0.0,0.0,1.0,793.0,952.6261506110507)"><path id="ProcessOnPath1091" d="M0 0H70.0V25.0H0Z" fill="#fff" transform="matrix(1.0,0.0,0.0,1.0,-35.0,0.0)"/><text id="ProcessOnText1092" fill="#1abc9c" font-weight="normal" font-style="normal" text-decoration="blink" font-family="微软雅黑" text-anchor="middle" font-size="20" x="0.0" y="20.5">success</text></g></g><g id="ProcessOnG1093" transform="matrix(1.0,0.0,0.0,1.0,665.0,1214.8990317602547)" opacity="1.0"><path id="ProcessOnPath1094" d="M0.0 4.0Q0.0 0.0 4.0 0.0L254.35694050991515 0.0Q258.35694050991515 0.0 258.35694050991515 4.0L258.35694050991515 98.48431899641571Q258.35694050991515 102.48431899641571 254.35694050991515 102.48431899641571L4.0 102.48431899641571Q0.0 102.48431899641571 0.0 98.48431899641571Z" stroke="#323232" stroke-width="2.0" stroke-dasharray="none" opacity="1.0" fill="#1abc9c"/><g id="ProcessOnG1095" transform="matrix(1.0,0.0,0.0,1.0,10.0,26.242159498207855)"><text id="ProcessOnText1096" fill="#ffffff" font-weight="normal" font-style="normal" text-decoration="blink" font-family="微软雅黑" text-anchor="middle" font-size="20" x="119.17847025495757" y="20.5">initRouter</text><text id="ProcessOnText1097" fill="#ffffff" font-weight="normal" font-style="normal" text-decoration="blink" font-family="微软雅黑" text-anchor="middle" font-size="20" x="119.17847025495757" y="45.5">初始化路由</text></g></g><g id="ProcessOnG1098"><path id="ProcessOnPath1099" d="M794.1784702549576 1121.3925228992434L794.1784702549576 1168.145777329749L794.1784702549576 1168.145777329749L794.1784702549576 1199.662963782755" stroke="#323232" stroke-width="2.0" stroke-dasharray="none" fill="none" marker-end="url(#ProcessOnMarker1100)"/></g><g id="ProcessOnG1102" transform="matrix(1.0,0.0,0.0,1.0,665.0,1410.8898596176819)" opacity="1.0"><path id="ProcessOnPath1103" d="M0.0 4.0Q0.0 0.0 4.0 0.0L254.35694050991515 0.0Q258.35694050991515 0.0 258.35694050991515 4.0L258.35694050991515 98.48431899641571Q258.35694050991515 102.48431899641571 254.35694050991515 102.48431899641571L4.0 102.48431899641571Q0.0 102.48431899641571 0.0 98.48431899641571Z" stroke="#323232" stroke-width="2.0" stroke-dasharray="none" opacity="1.0" fill="#1abc9c"/><g id="ProcessOnG1104" transform="matrix(1.0,0.0,0.0,1.0,10.0,26.242159498207855)"><text id="ProcessOnText1105" fill="#ffffff" font-weight="normal" font-style="normal" text-decoration="blink" font-family="微软雅黑" text-anchor="middle" font-size="20" x="119.17847025495757" y="20.5">initViewModel</text><text id="ProcessOnText1106" fill="#ffffff" font-weight="normal" font-style="normal" text-decoration="blink" font-family="微软雅黑" text-anchor="middle" font-size="20" x="119.17847025495757" y="45.5">初始化页面模型</text></g></g><g id="ProcessOnG1107"><path id="ProcessOnPath1108" d="M794.1784702549576 1317.3833507566706L794.1784702549576 1364.1366051871762L794.1784702549576 1364.1366051871762L794.1784702549576 1395.6537916401821" stroke="#323232" stroke-width="2.0" stroke-dasharray="none" fill="none" marker-end="url(#ProcessOnMarker1109)"/></g><g id="ProcessOnG1111" transform="matrix(1.0,0.0,0.0,1.0,665.0,1710.7965949820793)" opacity="1.0"><path id="ProcessOnPath1112" d="M27.688172043010752 0.0L230.66876846690428 0.0C267.5863311909186 0.0 267.5863311909186 83.06451612903226 230.66876846690428 83.06451612903226L27.688172043010752 83.06451612903226C-9.229390681003585 83.06451612903226 -9.229390681003585 0.0 27.688172043010752 0.0Z" stroke="#323232" stroke-width="2.0" stroke-dasharray="none" opacity="1.0" fill="#44b549"/><g id="ProcessOnG1113" transform="matrix(1.0,0.0,0.0,1.0,10.0,29.032258064516128)"><text id="ProcessOnText1114" fill="#ffffff" font-weight="normal" font-style="normal" text-decoration="blink" font-family="微软雅黑" text-anchor="middle" font-size="20" x="119.17847025495752" y="20.5">Done</text></g></g><g id="ProcessOnG1115"><path id="ProcessOnPath1116" d="M794.1784702549576 1513.3741786140974L794.1784702549576 1612.0853867980884L794.1784702549575 1612.0853867980884L794.1784702549575 1695.5605270045796" stroke="#323232" stroke-width="2.0" stroke-dasharray="none" fill="none" marker-end="url(#ProcessOnMarker1117)"/></g><g id="ProcessOnG1119" transform="matrix(1.0,0.0,0.0,1.0,245.0,649.0)" opacity="1.0"><path id="ProcessOnPath1120" d="M0.0 4.0Q0.0 0.0 4.0 0.0L199.33333333333331 0.0Q203.33333333333331 0.0 203.33333333333331 4.0L203.33333333333331 79.33333333333334Q203.33333333333331 83.33333333333334 199.33333333333331 83.33333333333334L4.0 83.33333333333334Q0.0 83.33333333333334 0.0 79.33333333333334Z" stroke="#990000" stroke-width="2.0" stroke-dasharray="none" opacity="1.0" fill="none"/><g id="ProcessOnG1121" transform="matrix(1.0,0.0,0.0,1.0,10.0,29.16666666666667)"><text id="ProcessOnText1122" fill="#990000" font-weight="normal" font-style="normal" text-decoration="blink" font-family="微软雅黑" text-anchor="middle" font-size="20" x="91.66666666666666" y="20.5">ConfigReceived</text></g></g><g id="ProcessOnG1123" transform="matrix(1.0,0.0,0.0,1.0,245.0,929.0)" opacity="1.0"><path id="ProcessOnPath1124" d="M0.0 4.0Q0.0 0.0 4.0 0.0L199.33333333333331 0.0Q203.33333333333331 0.0 203.33333333333331 4.0L203.33333333333331 79.33333333333334Q203.33333333333331 83.33333333333334 199.33333333333331 83.33333333333334L4.0 83.33333333333334Q0.0 83.33333333333334 0.0 79.33333333333334Z" stroke="#990000" stroke-width="2.0" stroke-dasharray="none" opacity="1.0" fill="none"/><g id="ProcessOnG1125" transform="matrix(1.0,0.0,0.0,1.0,10.0,29.16666666666667)"><text id="ProcessOnText1126" fill="#990000" font-weight="normal" font-style="normal" text-decoration="blink" font-family="微软雅黑" text-anchor="middle" font-size="20" x="91.66666666666666" y="20.5">ConfigValidated</text></g></g><g id="ProcessOnG1127" transform="matrix(1.0,0.0,0.0,1.0,245.0,1135.0)" opacity="1.0"><path id="ProcessOnPath1128" d="M0.0 4.0Q0.0 0.0 4.0 0.0L199.33333333333331 0.0Q203.33333333333331 0.0 203.33333333333331 4.0L203.33333333333331 79.33333333333334Q203.33333333333331 83.33333333333334 199.33333333333331 83.33333333333334L4.0 83.33333333333334Q0.0 83.33333333333334 0.0 79.33333333333334Z" stroke="#990000" stroke-width="2.0" stroke-dasharray="none" opacity="1.0" fill="none"/><g id="ProcessOnG1129" transform="matrix(1.0,0.0,0.0,1.0,10.0,29.16666666666667)"><text id="ProcessOnText1130" fill="#990000" font-weight="normal" font-style="normal" text-decoration="blink" font-family="微软雅黑" text-anchor="middle" font-size="20" x="91.66666666666666" y="20.5">StoreInited</text></g></g><g id="ProcessOnG1131" transform="matrix(1.0,0.0,0.0,1.0,245.0,1333.0)" opacity="1.0"><path id="ProcessOnPath1132" d="M0.0 4.0Q0.0 0.0 4.0 0.0L199.33333333333331 0.0Q203.33333333333331 0.0 203.33333333333331 4.0L203.33333333333331 79.33333333333334Q203.33333333333331 83.33333333333334 199.33333333333331 83.33333333333334L4.0 83.33333333333334Q0.0 83.33333333333334 0.0 79.33333333333334Z" stroke="#990000" stroke-width="2.0" stroke-dasharray="none" opacity="1.0" fill="none"/><g id="ProcessOnG1133" transform="matrix(1.0,0.0,0.0,1.0,10.0,29.16666666666667)"><text id="ProcessOnText1134" fill="#990000" font-weight="normal" font-style="normal" text-decoration="blink" font-family="微软雅黑" text-anchor="middle" font-size="20" x="91.66666666666666" y="20.5">RouterInited</text></g></g><g id="ProcessOnG1135" transform="matrix(1.0,0.0,0.0,1.0,245.0,1507.0816905615288)" opacity="1.0"><path id="ProcessOnPath1136" d="M0.0 4.0Q0.0 0.0 4.0 0.0L199.33333333333331 0.0Q203.33333333333331 0.0 203.33333333333331 4.0L203.33333333333331 79.33333333333334Q203.33333333333331 83.33333333333334 199.33333333333331 83.33333333333334L4.0 83.33333333333334Q0.0 83.33333333333334 0.0 79.33333333333334Z" stroke="#990000" stroke-width="2.0" stroke-dasharray="none" opacity="1.0" fill="none"/><g id="ProcessOnG1137" transform="matrix(1.0,0.0,0.0,1.0,10.0,29.16666666666667)"><text id="ProcessOnText1138" fill="#990000" font-weight="normal" font-style="normal" text-decoration="blink" font-family="微软雅黑" text-anchor="middle" font-size="20" x="91.66666666666666" y="20.5">ViewModelInited</text></g></g><g id="ProcessOnG1139"><path id="ProcessOnPath1140" d="M794.1784702549576 1513.3741786140974L794.1784702549576 1548.7483572281956L463.56940131083303 1548.7483572281956" stroke="#323232" stroke-width="2.0" stroke-dasharray="10.0 4.0" fill="none" marker-end="url(#ProcessOnMarker1141)"/></g><g id="ProcessOnG1143" transform="matrix(1.0,0.0,0.0,1.0,245.0,1631.7483572281953)" opacity="1.0"><path id="ProcessOnPath1144" d="M0.0 4.0Q0.0 0.0 4.0 0.0L199.33333333333331 0.0Q203.33333333333331 0.0 203.33333333333331 4.0L203.33333333333331 79.33333333333334Q203.33333333333331 83.33333333333334 199.33333333333331 83.33333333333334L4.0 83.33333333333334Q0.0 83.33333333333334 0.0 79.33333333333334Z" stroke="#990000" stroke-width="2.0" stroke-dasharray="none" opacity="1.0" fill="none"/><g id="ProcessOnG1145" transform="matrix(1.0,0.0,0.0,1.0,10.0,29.16666666666667)"><text id="ProcessOnText1146" fill="#990000" font-weight="normal" font-style="normal" text-decoration="blink" font-family="微软雅黑" text-anchor="middle" font-size="20" x="91.66666666666666" y="20.5">Ready</text></g></g><g id="ProcessOnG1147"><path id="ProcessOnPath1148" d="M794.1784702549576 1513.3741786140974L794.1784702549576 1673.415023894862L463.56940131083314 1673.415023894862" stroke="#323232" stroke-width="2.0" stroke-dasharray="10.0 4.0" fill="none" marker-end="url(#ProcessOnMarker1149)"/></g></g></g></svg>