<svg xmlns="http://www.w3.org/2000/svg" xmlns:xlink="http://www.w3.org/1999/xlink" id="processonSvg1000" viewBox="62.0 110.0 1148.0 177.0" width="1148.0" height="177.0"><defs id="ProcessOnDefs1001"><marker id="ProcessOnMarker1023" markerUnits="userSpaceOnUse" orient="auto" markerWidth="16.23606797749979" markerHeight="10.550836550532098" viewBox="-1.0 -1.3763819204711736 16.23606797749979 10.550836550532098" refX="-1.0" refY="3.8990363547948754"><path id="ProcessOnPath1024" d="M12.0 3.8990363547948754L0.0 7.798072709589751V0.0Z" stroke="#323232" stroke-width="2.0" fill="#323232" transform="matrix(1.0,0.0,0.0,1.0,0.0,0.0)"/></marker><marker id="ProcessOnMarker1035" markerUnits="userSpaceOnUse" orient="auto" markerWidth="16.23606797749979" markerHeight="10.550836550532098" viewBox="-1.0 -1.3763819204711736 16.23606797749979 10.550836550532098" refX="-1.0" refY="3.8990363547948754"><path id="ProcessOnPath1036" d="M12.0 3.8990363547948754L0.0 7.798072709589751V0.0Z" stroke="#323232" stroke-width="2.0" fill="#323232" transform="matrix(1.0,0.0,0.0,1.0,0.0,0.0)"/></marker></defs><g id="ProcessOnG1002"><path id="ProcessOnPath1003" d="M62.0 110.0H1210.0V287.0H62.0V110.0Z" fill="none"/><g id="ProcessOnG1004"><g id="ProcessOnG1005" transform="matrix(1.0,0.0,0.0,1.0,82.0,130.0)" opacity="1.0"><path id="ProcessOnPath1006" d="M0.0 0.0L200.0 0.0L200.0 137.0L0.0 137.0Z" stroke="#99ccff" stroke-width="2.0" stroke-dasharray="none" opacity="1.0" fill="#3399ff"/><g id="ProcessOnG1007" transform="matrix(1.0,0.0,0.0,1.0,10.0,12.25)"><text id="ProcessOnText1008" fill="#ffffff" font-weight="bold" font-style="normal" text-decoration="blink" font-family="微软雅黑" text-anchor="middle" font-size="18" x="90.0" y="18.45">工作台</text><text id="ProcessOnText1009" fill="#ffffff" font-weight="bold" font-style="normal" text-decoration="blink" font-family="微软雅黑" text-anchor="middle" font-size="18" x="90.0" y="40.95"></text><text id="ProcessOnText1010" fill="#ffffff" font-weight="bold" font-style="normal" text-decoration="blink" font-family="微软雅黑" text-anchor="middle" font-size="18" x="90.0" y="63.45">切换游戏的配置页面</text><text id="ProcessOnText1011" fill="#ffffff" font-weight="bold" font-style="normal" text-decoration="blink" font-family="微软雅黑" text-anchor="middle" font-size="18" x="90.0" y="85.95">或</text><text id="ProcessOnText1012" fill="#ffffff" font-weight="bold" font-style="normal" text-decoration="blink" font-family="微软雅黑" text-anchor="middle" font-size="18" x="90.0" y="108.45">成功修改了游戏配置</text></g></g><g id="ProcessOnG1013" transform="matrix(1.0,0.0,0.0,1.0,542.0,130.0)" opacity="1.0"><path id="ProcessOnPath1014" d="M0.0 0.0L200.0 0.0L200.0 137.0L0.0 137.0Z" stroke="#99ccff" stroke-width="2.0" stroke-dasharray="none" opacity="1.0" fill="#3399ff"/><g id="ProcessOnG1015" transform="matrix(1.0,0.0,0.0,1.0,10.0,57.25)"><text id="ProcessOnText1016" fill="#ffffff" font-weight="bold" font-style="normal" text-decoration="blink" font-family="微软雅黑" text-anchor="middle" font-size="18" x="90.0" y="18.45">后台</text></g></g><g id="ProcessOnG1017" transform="matrix(1.0,0.0,0.0,1.0,990.0,130.0)" opacity="1.0"><path id="ProcessOnPath1018" d="M0.0 0.0L200.0 0.0L200.0 137.0L0.0 137.0Z" stroke="#99ccff" stroke-width="2.0" stroke-dasharray="none" opacity="1.0" fill="#3399ff"/><g id="ProcessOnG1019" transform="matrix(1.0,0.0,0.0,1.0,10.0,57.25)"><text id="ProcessOnText1020" fill="#ffffff" font-weight="bold" font-style="normal" text-decoration="blink" font-family="微软雅黑" text-anchor="middle" font-size="18" x="90.0" y="18.45">游戏预览端</text></g></g><g id="ProcessOnG1021"><path id="ProcessOnPath1022" d="M282.0 198.5L412.0 198.5L412.0 198.5L526.7639320225002 198.5" stroke="#323232" stroke-width="2.0" stroke-dasharray="none" fill="none" marker-end="url(#ProcessOnMarker1023)"/></g><g id="ProcessOnG1025" transform="matrix(1.0,0.0,0.0,1.0,302.0,165.0)" opacity="1.0"><path id="ProcessOnPath1026" d="M0.0 0.0L211.0 0.0L211.0 33.0L0.0 33.0Z" stroke="#323232" stroke-width="0.0" stroke-dasharray="none" opacity="1.0" fill="none"/><g id="ProcessOnG1027" transform="matrix(1.0,0.0,0.0,1.0,0.0,8.375)"><text id="ProcessOnText1028" fill="#000000" font-weight="normal" font-style="normal" text-decoration="blink" font-family="微软雅黑" text-anchor="middle" font-size="13" x="105.5" y="13.325">通知“切换页面”或“修改配置”</text></g></g><g id="ProcessOnG1029" transform="matrix(1.0,0.0,0.0,1.0,333.0,201.0)" opacity="1.0"><path id="ProcessOnPath1030" d="M0.0 0.0L149.0 0.0L149.0 29.0L0.0 29.0Z" stroke="#323232" stroke-width="0.0" stroke-dasharray="none" opacity="1.0" fill="none"/><g id="ProcessOnG1031" transform="matrix(1.0,0.0,0.0,1.0,0.0,4.5)"><text id="ProcessOnText1032" fill="#000000" font-weight="normal" font-style="normal" text-decoration="blink" font-family="微软雅黑" text-anchor="middle" font-size="16" x="74.5" y="16.4">ajax</text></g></g><g id="ProcessOnG1033"><path id="ProcessOnPath1034" d="M742.0 198.5L866.0 198.5L866.0 198.5L974.7639320225002 198.5" stroke="#323232" stroke-width="2.0" stroke-dasharray="none" fill="none" marker-end="url(#ProcessOnMarker1035)"/></g><g id="ProcessOnG1037" transform="matrix(1.0,0.0,0.0,1.0,760.0,165.0)" opacity="1.0"><path id="ProcessOnPath1038" d="M0.0 0.0L210.0 0.0L210.0 33.0L0.0 33.0Z" stroke="#323232" stroke-width="0.0" stroke-dasharray="none" opacity="1.0" fill="none"/><g id="ProcessOnG1039" transform="matrix(1.0,0.0,0.0,1.0,0.0,7.75)"><text id="ProcessOnText1040" fill="#000000" font-weight="normal" font-style="normal" text-decoration="blink" font-family="微软雅黑" text-anchor="middle" font-size="14" x="105.0" y="14.350000000000001">通知“切换页面”或“修改配置”</text></g></g><g id="ProcessOnG1041" transform="matrix(1.0,0.0,0.0,1.0,782.0,201.0)" opacity="1.0"><path id="ProcessOnPath1042" d="M0.0 0.0L149.0 0.0L149.0 29.0L0.0 29.0Z" stroke="#323232" stroke-width="0.0" stroke-dasharray="none" opacity="1.0" fill="none"/><g id="ProcessOnG1043" transform="matrix(1.0,0.0,0.0,1.0,0.0,4.5)"><text id="ProcessOnText1044" fill="#000000" font-weight="normal" font-style="normal" text-decoration="blink" font-family="微软雅黑" text-anchor="middle" font-size="16" x="74.5" y="16.4">SSE</text></g></g></g></g></svg>