<svg xmlns="http://www.w3.org/2000/svg" xmlns:xlink="http://www.w3.org/1999/xlink" id="processonSvg1000" viewBox="215.0 64.75 1035.0 802.25" width="1035.0" height="802.25"><defs id="ProcessOnDefs1001"><marker id="ProcessOnMarker1035" markerUnits="userSpaceOnUse" orient="auto" markerWidth="16.23606797749979" markerHeight="10.550836550532098" viewBox="-1.0 -1.3763819204711736 16.23606797749979 10.550836550532098" refX="-1.0" refY="3.8990363547948754"><path id="ProcessOnPath1036" d="M12.0 3.8990363547948754L0.0 7.798072709589751V0.0Z" stroke="#323232" stroke-width="2.0" fill="#323232" transform="matrix(1.0,0.0,0.0,1.0,0.0,0.0)"/></marker><marker id="ProcessOnMarker1043" markerUnits="userSpaceOnUse" orient="auto" markerWidth="16.23606797749979" markerHeight="10.550836550532098" viewBox="-1.0 -1.3763819204711736 16.23606797749979 10.550836550532098" refX="-1.0" refY="3.8990363547948754"><path id="ProcessOnPath1044" d="M12.0 3.8990363547948754L0.0 7.798072709589751V0.0Z" stroke="#323232" stroke-width="2.0" fill="#323232" transform="matrix(1.0,0.0,0.0,1.0,0.0,0.0)"/></marker><marker id="ProcessOnMarker1051" markerUnits="userSpaceOnUse" orient="auto" markerWidth="16.23606797749979" markerHeight="10.550836550532098" viewBox="-1.0 -1.3763819204711736 16.23606797749979 10.550836550532098" refX="-1.0" refY="3.8990363547948754"><path id="ProcessOnPath1052" d="M12.0 3.8990363547948754L0.0 7.798072709589751V0.0Z" stroke="#323232" stroke-width="2.0" fill="#323232" transform="matrix(1.0,0.0,0.0,1.0,0.0,0.0)"/></marker><marker id="ProcessOnMarker1063" markerUnits="userSpaceOnUse" orient="auto" markerWidth="16.23606797749979" markerHeight="10.550836550532098" viewBox="-1.0 -1.3763819204711736 16.23606797749979 10.550836550532098" refX="-1.0" refY="3.8990363547948754"><path id="ProcessOnPath1064" d="M12.0 3.8990363547948754L0.0 7.798072709589751V0.0Z" stroke="#323232" stroke-width="2.0" fill="#323232" transform="matrix(1.0,0.0,0.0,1.0,0.0,0.0)"/></marker><marker id="ProcessOnMarker1085" markerUnits="userSpaceOnUse" orient="auto" markerWidth="16.23606797749979" markerHeight="10.550836550532098" viewBox="-1.0 -1.3763819204711736 16.23606797749979 10.550836550532098" refX="-1.0" refY="3.8990363547948754"><path id="ProcessOnPath1086" d="M12.0 3.8990363547948754L0.0 7.798072709589751V0.0Z" stroke="#323232" stroke-width="2.0" fill="#323232" transform="matrix(1.0,0.0,0.0,1.0,0.0,0.0)"/></marker><marker id="ProcessOnMarker1097" markerUnits="userSpaceOnUse" orient="auto" markerWidth="16.23606797749979" markerHeight="10.550836550532098" viewBox="-1.0 -1.3763819204711736 16.23606797749979 10.550836550532098" refX="-1.0" refY="3.8990363547948754"><path id="ProcessOnPath1098" d="M12.0 3.8990363547948754L0.0 7.798072709589751V0.0Z" stroke="#323232" stroke-width="2.0" fill="#323232" transform="matrix(1.0,0.0,0.0,1.0,0.0,0.0)"/></marker><marker id="ProcessOnMarker1101" markerUnits="userSpaceOnUse" orient="auto" markerWidth="16.23606797749979" markerHeight="10.550836550532098" viewBox="-1.0 -1.3763819204711736 16.23606797749979 10.550836550532098" refX="-1.0" refY="3.8990363547948754"><path id="ProcessOnPath1102" d="M12.0 3.8990363547948754L0.0 7.798072709589751V0.0Z" stroke="#323232" stroke-width="2.0" fill="#323232" transform="matrix(1.0,0.0,0.0,1.0,0.0,0.0)"/></marker><marker id="ProcessOnMarker1105" markerUnits="userSpaceOnUse" orient="auto" markerWidth="16.23606797749979" markerHeight="10.550836550532098" viewBox="-1.0 -1.3763819204711736 16.23606797749979 10.550836550532098" refX="-1.0" refY="3.8990363547948754"><path id="ProcessOnPath1106" d="M12.0 3.8990363547948754L0.0 7.798072709589751V0.0Z" stroke="#323232" stroke-width="2.0" fill="#323232" transform="matrix(1.0,0.0,0.0,1.0,0.0,0.0)"/></marker></defs><g id="ProcessOnG1002"><path id="ProcessOnPath1003" d="M215.0 64.75H1250.0V867.0H215.0V64.75Z" fill="none"/><g id="ProcessOnG1004"><g id="ProcessOnG1005" transform="matrix(1.0,0.0,0.0,1.0,235.0,84.75)" opacity="1.0"><path id="ProcessOnPath1006" d="M0.0 0.0L995.0 0.0L995.0 762.25L0.0 762.25Z" stroke="#323232" stroke-width="2.0" stroke-dasharray="none" opacity="1.0" fill="none"/><path id="ProcessOnPath1007" d="M0.0 0.0L995.0 0.0L995.0 40.0L0.0 40.0Z" stroke="#323232" stroke-width="2.0" stroke-dasharray="none" opacity="1.0" fill="#ffffff"/><g id="ProcessOnG1008" transform="matrix(1.0,0.0,0.0,1.0,10.0,10.0)"><text id="ProcessOnText1009" fill="#000000" font-weight="normal" font-style="normal" text-decoration="blink" font-family="微软雅黑" text-anchor="middle" font-size="16" x="487.5" y="16.4">实时预览流程</text></g></g><g id="ProcessOnG1010" transform="matrix(1.0,0.0,0.0,1.0,235.0,124.75)" opacity="1.0"><path id="ProcessOnPath1011" d="M0.0 0.0L245.0 0.0L245.0 722.25L0.0 722.25Z" stroke="#323232" stroke-width="2.0" stroke-dasharray="none" opacity="1.0" fill="none"/><path id="ProcessOnPath1012" d="M0.0 0.0L245.0 0.0L245.0 30.0L0.0 30.0Z" stroke="#323232" stroke-width="2.0" stroke-dasharray="none" opacity="1.0" fill="#ffffff"/><g id="ProcessOnG1013" transform="matrix(1.0,0.0,0.0,1.0,10.0,6.875)"><text id="ProcessOnText1014" fill="#000000" font-weight="normal" font-style="normal" text-decoration="blink" font-family="微软雅黑" text-anchor="middle" font-size="13" x="112.5" y="13.325">store</text></g></g><g id="ProcessOnG1015" transform="matrix(1.0,0.0,0.0,1.0,480.0,124.75)" opacity="1.0"><path id="ProcessOnPath1016" d="M0.0 0.0L250.0 0.0L250.0 722.25L0.0 722.25Z" stroke="#323232" stroke-width="2.0" stroke-dasharray="none" opacity="1.0" fill="none"/><path id="ProcessOnPath1017" d="M0.0 0.0L250.0 0.0L250.0 30.0L0.0 30.0Z" stroke="#323232" stroke-width="2.0" stroke-dasharray="none" opacity="1.0" fill="#ffffff"/><g id="ProcessOnG1018" transform="matrix(1.0,0.0,0.0,1.0,10.0,6.875)"><text id="ProcessOnText1019" fill="#000000" font-weight="normal" font-style="normal" text-decoration="blink" font-family="微软雅黑" text-anchor="middle" font-size="13" x="115.0" y="13.325">server</text></g></g><g id="ProcessOnG1020" transform="matrix(1.0,0.0,0.0,1.0,730.0,124.75)" opacity="1.0"><path id="ProcessOnPath1021" d="M0.0 0.0L250.0 0.0L250.0 722.25L0.0 722.25Z" stroke="#323232" stroke-width="2.0" stroke-dasharray="none" opacity="1.0" fill="none"/><path id="ProcessOnPath1022" d="M0.0 0.0L250.0 0.0L250.0 30.0L0.0 30.0Z" stroke="#323232" stroke-width="2.0" stroke-dasharray="none" opacity="1.0" fill="#ffffff"/><g id="ProcessOnG1023" transform="matrix(1.0,0.0,0.0,1.0,10.0,6.875)"><text id="ProcessOnText1024" fill="#000000" font-weight="normal" font-style="normal" text-decoration="blink" font-family="微软雅黑" text-anchor="middle" font-size="13" x="115.0" y="13.325">hwsdk</text></g></g><g id="ProcessOnG1025" transform="matrix(1.0,0.0,0.0,1.0,299.5,504.08479817708326)" opacity="1.0"><path id="ProcessOnPath1026" d="M0.0 0.0L127.0 0.0L127.0 53.0L0.0 53.0Z" stroke="#323232" stroke-width="2.0" stroke-dasharray="none" opacity="1.0" fill="#1abc9c"/><g id="ProcessOnG1027" transform="matrix(1.0,0.0,0.0,1.0,10.0,18.375)"><text id="ProcessOnText1028" fill="#ffffff" font-weight="normal" font-style="normal" text-decoration="blink" font-family="微软雅黑" text-anchor="middle" font-size="13" x="53.5" y="13.325">保存配置表</text></g></g><g id="ProcessOnG1029" transform="matrix(1.0,0.0,0.0,1.0,548.5,504.08479817708326)" opacity="1.0"><path id="ProcessOnPath1030" d="M0.0 0.0L127.0 0.0L127.0 53.0L0.0 53.0Z" stroke="#323232" stroke-width="2.0" stroke-dasharray="none" opacity="1.0" fill="#1abc9c"/><g id="ProcessOnG1031" transform="matrix(1.0,0.0,0.0,1.0,10.0,18.375)"><text id="ProcessOnText1032" fill="#ffffff" font-weight="normal" font-style="normal" text-decoration="blink" font-family="微软雅黑" text-anchor="middle" font-size="13" x="53.5" y="13.325">写入数据库</text></g></g><g id="ProcessOnG1033"><path id="ProcessOnPath1034" d="M426.5 530.5847981770833L487.5 530.5847981770833L487.5 530.5847981770833L533.2639320225002 530.5847981770833" stroke="#323232" stroke-width="2.0" stroke-dasharray="none" fill="none" marker-end="url(#ProcessOnMarker1035)"/></g><g id="ProcessOnG1037" transform="matrix(1.0,0.0,0.0,1.0,548.5,641.0847981770833)" opacity="1.0"><path id="ProcessOnPath1038" d="M0.0 0.0L127.0 0.0L127.0 53.0L0.0 53.0Z" stroke="#323232" stroke-width="2.0" stroke-dasharray="none" opacity="1.0" fill="#1abc9c"/><g id="ProcessOnG1039" transform="matrix(1.0,0.0,0.0,1.0,10.0,18.375)"><text id="ProcessOnText1040" fill="#ffffff" font-weight="normal" font-style="normal" text-decoration="blink" font-family="微软雅黑" text-anchor="middle" font-size="13" x="53.5" y="13.325">通过SSE推送消息</text></g></g><g id="ProcessOnG1041"><path id="ProcessOnPath1042" d="M612.0 557.0847981770833L612.0 599.0847981770833L612.0 599.0847981770833L612.0 625.8487301995834" stroke="#323232" stroke-width="2.0" stroke-dasharray="none" fill="none" marker-end="url(#ProcessOnMarker1043)"/></g><g id="ProcessOnG1045" transform="matrix(1.0,0.0,0.0,1.0,794.5,641.0847981770833)" opacity="1.0"><path id="ProcessOnPath1046" d="M0.0 0.0L127.0 0.0L127.0 53.0L0.0 53.0Z" stroke="#323232" stroke-width="2.0" stroke-dasharray="none" opacity="1.0" fill="#1abc9c"/><g id="ProcessOnG1047" transform="matrix(1.0,0.0,0.0,1.0,10.0,18.375)"><text id="ProcessOnText1048" fill="#ffffff" font-weight="normal" font-style="normal" text-decoration="blink" font-family="微软雅黑" text-anchor="middle" font-size="13" x="53.5" y="13.325">接收数据变更消息</text></g></g><g id="ProcessOnG1049"><path id="ProcessOnPath1050" d="M675.5 667.5847981770833L735.0 667.5847981770833L735.0 667.5847981770833L779.2639320225002 667.5847981770833" stroke="#323232" stroke-width="2.0" stroke-dasharray="none" fill="none" marker-end="url(#ProcessOnMarker1051)"/></g><g id="ProcessOnG1053" transform="matrix(1.0,0.0,0.0,1.0,794.5,285.08479817708326)" opacity="1.0"><path id="ProcessOnPath1054" d="M0.0 0.0L127.0 0.0L127.0 53.0L0.0 53.0Z" stroke="#323232" stroke-width="2.0" stroke-dasharray="none" opacity="1.0" fill="#1abc9c"/><g id="ProcessOnG1055" transform="matrix(1.0,0.0,0.0,1.0,10.0,18.375)"><text id="ProcessOnText1056" fill="#ffffff" font-weight="normal" font-style="normal" text-decoration="blink" font-family="微软雅黑" text-anchor="middle" font-size="13" x="53.5" y="13.325">发起SSE连接</text></g></g><g id="ProcessOnG1057" transform="matrix(1.0,0.0,0.0,1.0,548.5,285.08479817708326)" opacity="1.0"><path id="ProcessOnPath1058" d="M0.0 0.0L127.0 0.0L127.0 53.0L0.0 53.0Z" stroke="#323232" stroke-width="2.0" stroke-dasharray="none" opacity="1.0" fill="#1abc9c"/><g id="ProcessOnG1059" transform="matrix(1.0,0.0,0.0,1.0,10.0,18.375)"><text id="ProcessOnText1060" fill="#ffffff" font-weight="normal" font-style="normal" text-decoration="blink" font-family="微软雅黑" text-anchor="middle" font-size="13" x="53.5" y="13.325">缓存SSE连接实例</text></g></g><g id="ProcessOnG1061"><path id="ProcessOnPath1062" d="M794.5 311.58479817708326L735.0 311.58479817708326L735.0 311.58479817708326L690.7360679774998 311.58479817708326" stroke="#323232" stroke-width="2.0" stroke-dasharray="none" fill="none" marker-end="url(#ProcessOnMarker1063)"/></g><g id="ProcessOnG1065" transform="matrix(1.0,0.0,0.0,1.0,980.0,124.75)" opacity="1.0"><path id="ProcessOnPath1066" d="M0.0 0.0L250.0 0.0L250.0 722.25L0.0 722.25Z" stroke="#323232" stroke-width="2.0" stroke-dasharray="none" opacity="1.0" fill="none"/><path id="ProcessOnPath1067" d="M0.0 0.0L250.0 0.0L250.0 30.0L0.0 30.0Z" stroke="#323232" stroke-width="2.0" stroke-dasharray="none" opacity="1.0" fill="#ffffff"/><g id="ProcessOnG1068" transform="matrix(1.0,0.0,0.0,1.0,10.0,6.875)"><text id="ProcessOnText1069" fill="#000000" font-weight="normal" font-style="normal" text-decoration="blink" font-family="微软雅黑" text-anchor="middle" font-size="13" x="115.0" y="13.325">模板</text></g></g><g id="ProcessOnG1070" transform="matrix(1.0,0.0,0.0,1.0,1039.0,191.08479817708326)" opacity="1.0"><path id="ProcessOnPath1071" d="M0.0 0.0L127.0 0.0L127.0 53.0L0.0 53.0Z" stroke="#323232" stroke-width="2.0" stroke-dasharray="none" opacity="1.0" fill="#1abc9c"/><g id="ProcessOnG1072" transform="matrix(1.0,0.0,0.0,1.0,10.0,18.375)"><text id="ProcessOnText1073" fill="#ffffff" font-weight="normal" font-style="normal" text-decoration="blink" font-family="微软雅黑" text-anchor="middle" font-size="13" x="53.5" y="13.325">初始化HWSDK</text></g></g><g id="ProcessOnG1074" transform="matrix(1.0,0.0,0.0,1.0,1040.5,394.08479817708326)" opacity="1.0"><path id="ProcessOnPath1075" d="M0.0 0.0L127.0 0.0L127.0 53.0L0.0 53.0Z" stroke="#323232" stroke-width="2.0" stroke-dasharray="none" opacity="1.0" fill="#1abc9c"/><g id="ProcessOnG1076" transform="matrix(1.0,0.0,0.0,1.0,10.0,10.25)"><text id="ProcessOnText1077" fill="#ffffff" font-weight="normal" font-style="normal" text-decoration="blink" font-family="微软雅黑" text-anchor="middle" font-size="13" x="53.5" y="13.325">注册数据变更事件</text><text id="ProcessOnText1078" fill="#ffffff" font-weight="normal" font-style="normal" text-decoration="blink" font-family="微软雅黑" text-anchor="middle" font-size="13" x="53.5" y="29.575">回调</text></g></g><g id="ProcessOnG1079" transform="matrix(1.0,0.0,0.0,1.0,794.5,394.08479817708326)" opacity="1.0"><path id="ProcessOnPath1080" d="M0.0 0.0L127.0 0.0L127.0 53.0L0.0 53.0Z" stroke="#323232" stroke-width="2.0" stroke-dasharray="none" opacity="1.0" fill="#1abc9c"/><g id="ProcessOnG1081" transform="matrix(1.0,0.0,0.0,1.0,10.0,18.375)"><text id="ProcessOnText1082" fill="#ffffff" font-weight="normal" font-style="normal" text-decoration="blink" font-family="微软雅黑" text-anchor="middle" font-size="13" x="53.5" y="13.325">缓存回调事件</text></g></g><g id="ProcessOnG1083"><path id="ProcessOnPath1084" d="M1040.5 420.58479817708326L981.0 420.58479817708326L981.0 420.58479817708326L936.7360679774998 420.58479817708326" stroke="#323232" stroke-width="2.0" stroke-dasharray="none" fill="none" marker-end="url(#ProcessOnMarker1085)"/></g><g id="ProcessOnG1087" transform="matrix(1.0,0.0,0.0,1.0,794.5,742.0847981770833)" opacity="1.0"><path id="ProcessOnPath1088" d="M0.0 0.0L127.0 0.0L127.0 53.0L0.0 53.0Z" stroke="#323232" stroke-width="2.0" stroke-dasharray="none" opacity="1.0" fill="#1abc9c"/><g id="ProcessOnG1089" transform="matrix(1.0,0.0,0.0,1.0,10.0,18.375)"><text id="ProcessOnText1090" fill="#ffffff" font-weight="normal" font-style="normal" text-decoration="blink" font-family="微软雅黑" text-anchor="middle" font-size="13" x="53.5" y="13.325">执行回调</text></g></g><g id="ProcessOnG1091" transform="matrix(1.0,0.0,0.0,1.0,794.5,191.08479817708326)" opacity="1.0"><path id="ProcessOnPath1092" d="M0.0 0.0L127.0 0.0L127.0 53.0L0.0 53.0Z" stroke="#323232" stroke-width="2.0" stroke-dasharray="none" opacity="1.0" fill="#1abc9c"/><g id="ProcessOnG1093" transform="matrix(1.0,0.0,0.0,1.0,10.0,18.375)"><text id="ProcessOnText1094" fill="#ffffff" font-weight="normal" font-style="normal" text-decoration="blink" font-family="微软雅黑" text-anchor="middle" font-size="13" x="53.5" y="13.325">初始化</text></g></g><g id="ProcessOnG1095"><path id="ProcessOnPath1096" d="M1039.0 217.58479817708326L980.25 217.58479817708326L980.25 217.58479817708326L936.7360679774998 217.58479817708326" stroke="#323232" stroke-width="2.0" stroke-dasharray="none" fill="none" marker-end="url(#ProcessOnMarker1097)"/></g><g id="ProcessOnG1099"><path id="ProcessOnPath1100" d="M858.0 244.08479817708326L858.0 264.58479817708326L858.0 264.58479817708326L858.0 269.8487301995835" stroke="#323232" stroke-width="2.0" stroke-dasharray="none" fill="none" marker-end="url(#ProcessOnMarker1101)"/></g><g id="ProcessOnG1103"><path id="ProcessOnPath1104" d="M858.0 694.0847981770833L858.0 718.0847981770833L858.0 718.0847981770833L858.0 726.8487301995834" stroke="#323232" stroke-width="2.0" stroke-dasharray="none" fill="none" marker-end="url(#ProcessOnMarker1105)"/></g></g></g></svg>