<svg xmlns="http://www.w3.org/2000/svg" xmlns:xlink="http://www.w3.org/1999/xlink" id="processonSvg1000" viewBox="69.0 90.0 840.0 640.0" width="840.0" height="640.0"><defs id="ProcessOnDefs1001"/><g id="ProcessOnG1002"><path id="ProcessOnPath1003" d="M69.0 90.0H909.0V730.0H69.0V90.0Z" fill="#ffffff"/><g id="ProcessOnG1004"><g id="ProcessOnG1005" transform="matrix(1.0,0.0,0.0,1.0,89.0,110.0)" opacity="1.0"><path id="ProcessOnPath1006" d="M0.0 300.0C0.0 -100.0 800.0 -100.0 800.0 300.0C800.0 700.0 0.0 700.0 0.0 300.0Z" stroke="#29669d" stroke-width="2.0" stroke-dasharray="none" opacity="0.5" fill="#2476c0"/></g><g id="ProcessOnG1007" transform="matrix(1.0,0.0,0.0,1.0,189.0,241.5)" opacity="1.0"><path id="ProcessOnPath1008" d="M0.0 200.0C0.0 -66.66666666666667 600.0 -66.66666666666667 600.0 200.0C600.0 466.6666666666667 0.0 466.6666666666667 0.0 200.0Z" stroke="#a64656" stroke-width="2.0" stroke-dasharray="none" opacity="0.5" fill="#f74461"/></g><g id="ProcessOnG1009" transform="matrix(1.0,0.0,0.0,1.0,376.0,140.0)" opacity="1.0"><path id="ProcessOnPath1010" d="M0.0 0.0L226.0 0.0L226.0 62.0L0.0 62.0Z" stroke="#323232" stroke-width="0.0" stroke-dasharray="none" opacity="1.0" fill="none"/><g id="ProcessOnG1011" transform="matrix(1.0,0.0,0.0,1.0,0.0,-0.25)"><text id="ProcessOnText1012" fill="#ffffff" font-weight="normal" font-style="normal" text-decoration="blink" font-family="微软雅黑" text-anchor="middle" font-size="50" x="113.0" y="51.25">Page</text></g></g><g id="ProcessOnG1013" transform="matrix(1.0,0.0,0.0,1.0,376.0,249.0)" opacity="1.0"><path id="ProcessOnPath1014" d="M0.0 0.0L226.0 0.0L226.0 62.0L0.0 62.0Z" stroke="#323232" stroke-width="0.0" stroke-dasharray="none" opacity="1.0" fill="none"/><g id="ProcessOnG1015" transform="matrix(1.0,0.0,0.0,1.0,0.0,6.0)"><text id="ProcessOnText1016" fill="#ffffff" font-weight="normal" font-style="normal" text-decoration="blink" font-family="微软雅黑" text-anchor="middle" font-size="40" x="113.0" y="41.0">Module</text></g></g><g id="ProcessOnG1017" transform="matrix(1.0,0.0,0.0,1.0,304.0,330.0)" opacity="1.0"><path id="ProcessOnPath1018" d="M0.0 114.0C0.0 -38.0 382.0 -38.0 382.0 114.0C382.0 266.0 0.0 266.0 0.0 114.0Z" stroke="#ff9999" stroke-width="2.0" stroke-dasharray="none" opacity="1.0" fill="#ff6666"/></g><g id="ProcessOnG1019" transform="matrix(1.0,0.0,0.0,1.0,382.0,410.5)" opacity="1.0"><path id="ProcessOnPath1020" d="M0.0 0.0L226.0 0.0L226.0 62.0L0.0 62.0Z" stroke="#323232" stroke-width="0.0" stroke-dasharray="none" opacity="1.0" fill="none"/><g id="ProcessOnG1021" transform="matrix(1.0,0.0,0.0,1.0,0.0,12.25)"><text id="ProcessOnText1022" fill="#ffffff" font-weight="normal" font-style="normal" text-decoration="blink" font-family="微软雅黑" text-anchor="middle" font-size="30" x="113.0" y="30.75">Element</text></g></g></g></g></svg>